<mxfile host="app.diagrams.net" modified="2024-02-03T10:54:53.096Z" agent="Mozilla/5.0 (Macintosh; Intel Mac OS X 10_15_7) AppleWebKit/605.1.15 (KHTML, like Gecko) Version/16.1 Safari/605.1.15" etag="ho7x6G8Kk9HB1A05KnHJ" version="23.1.1" type="github">
  <diagram name="Page-1" id="SeCwqlmR22i1hAEwZQBu">
    <mxGraphModel dx="2424" dy="2238" grid="1" gridSize="10" guides="1" tooltips="1" connect="1" arrows="1" fold="1" page="1" pageScale="1" pageWidth="827" pageHeight="1169" math="0" shadow="0">
      <root>
        <mxCell id="0" />
        <mxCell id="1" parent="0" />
        <mxCell id="2Ev7zoqdlqUbOZQc-U9r-3" value="" style="group" vertex="1" connectable="0" parent="1">
          <mxGeometry x="150" y="20" width="320" height="170" as="geometry" />
        </mxCell>
        <mxCell id="2Ev7zoqdlqUbOZQc-U9r-19" value="" style="group" vertex="1" connectable="0" parent="2Ev7zoqdlqUbOZQc-U9r-3">
          <mxGeometry width="320" height="170" as="geometry" />
        </mxCell>
        <mxCell id="2Ev7zoqdlqUbOZQc-U9r-1" value="" style="rounded=1;whiteSpace=wrap;html=1;dashed=1;" vertex="1" parent="2Ev7zoqdlqUbOZQc-U9r-19">
          <mxGeometry width="320" height="170" as="geometry" />
        </mxCell>
        <mxCell id="2Ev7zoqdlqUbOZQc-U9r-2" value="Cache System" style="text;html=1;strokeColor=none;fillColor=none;align=center;verticalAlign=middle;whiteSpace=wrap;rounded=0;" vertex="1" parent="2Ev7zoqdlqUbOZQc-U9r-19">
          <mxGeometry width="160" height="46.36363636363636" as="geometry" />
        </mxCell>
        <mxCell id="2Ev7zoqdlqUbOZQc-U9r-4" value="Redis" style="shape=cylinder3;whiteSpace=wrap;html=1;boundedLbl=1;backgroundOutline=1;size=15;" vertex="1" parent="2Ev7zoqdlqUbOZQc-U9r-19">
          <mxGeometry x="20" y="46" width="60" height="80" as="geometry" />
        </mxCell>
        <mxCell id="2Ev7zoqdlqUbOZQc-U9r-5" value="cgs-cache-server" style="rounded=0;whiteSpace=wrap;html=1;" vertex="1" parent="2Ev7zoqdlqUbOZQc-U9r-19">
          <mxGeometry x="130" y="55" width="120" height="60" as="geometry" />
        </mxCell>
        <mxCell id="2Ev7zoqdlqUbOZQc-U9r-6" style="rounded=0;orthogonalLoop=1;jettySize=auto;html=1;entryX=1;entryY=0.5;entryDx=0;entryDy=0;entryPerimeter=0;startArrow=classic;startFill=1;" edge="1" parent="2Ev7zoqdlqUbOZQc-U9r-19" source="2Ev7zoqdlqUbOZQc-U9r-5" target="2Ev7zoqdlqUbOZQc-U9r-4">
          <mxGeometry relative="1" as="geometry" />
        </mxCell>
        <mxCell id="2Ev7zoqdlqUbOZQc-U9r-9" value="" style="group" vertex="1" connectable="0" parent="1">
          <mxGeometry x="1035" y="640" width="320" height="170" as="geometry" />
        </mxCell>
        <mxCell id="2Ev7zoqdlqUbOZQc-U9r-10" value="" style="rounded=1;whiteSpace=wrap;html=1;dashed=1;" vertex="1" parent="2Ev7zoqdlqUbOZQc-U9r-9">
          <mxGeometry width="320" height="170" as="geometry" />
        </mxCell>
        <mxCell id="2Ev7zoqdlqUbOZQc-U9r-11" value="Audit System" style="text;html=1;strokeColor=none;fillColor=none;align=center;verticalAlign=middle;whiteSpace=wrap;rounded=0;" vertex="1" parent="2Ev7zoqdlqUbOZQc-U9r-9">
          <mxGeometry width="160" height="46.36363636363636" as="geometry" />
        </mxCell>
        <mxCell id="2Ev7zoqdlqUbOZQc-U9r-12" value="MariaDB" style="shape=cylinder3;whiteSpace=wrap;html=1;boundedLbl=1;backgroundOutline=1;size=15;" vertex="1" parent="2Ev7zoqdlqUbOZQc-U9r-9">
          <mxGeometry x="20" y="46" width="60" height="80" as="geometry" />
        </mxCell>
        <mxCell id="2Ev7zoqdlqUbOZQc-U9r-13" value="cgs-audit-server" style="rounded=0;whiteSpace=wrap;html=1;" vertex="1" parent="2Ev7zoqdlqUbOZQc-U9r-9">
          <mxGeometry x="130" y="55" width="120" height="60" as="geometry" />
        </mxCell>
        <mxCell id="2Ev7zoqdlqUbOZQc-U9r-14" style="rounded=0;orthogonalLoop=1;jettySize=auto;html=1;entryX=1;entryY=0.5;entryDx=0;entryDy=0;entryPerimeter=0;startArrow=classic;startFill=1;" edge="1" parent="2Ev7zoqdlqUbOZQc-U9r-9" source="2Ev7zoqdlqUbOZQc-U9r-13" target="2Ev7zoqdlqUbOZQc-U9r-12">
          <mxGeometry relative="1" as="geometry" />
        </mxCell>
        <mxCell id="2Ev7zoqdlqUbOZQc-U9r-17" value="" style="group" vertex="1" connectable="0" parent="1">
          <mxGeometry x="110" y="460" width="874" height="630" as="geometry" />
        </mxCell>
        <mxCell id="2Ev7zoqdlqUbOZQc-U9r-40" value="" style="rounded=1;whiteSpace=wrap;html=1;dashed=1;" vertex="1" parent="2Ev7zoqdlqUbOZQc-U9r-17">
          <mxGeometry x="-16.19" y="-41.77" width="890.19" height="671.77" as="geometry" />
        </mxCell>
        <mxCell id="2Ev7zoqdlqUbOZQc-U9r-41" value="" style="group" vertex="1" connectable="0" parent="2Ev7zoqdlqUbOZQc-U9r-17">
          <mxGeometry x="220.12" width="609.88" height="167.1" as="geometry" />
        </mxCell>
        <mxCell id="2Ev7zoqdlqUbOZQc-U9r-15" value="" style="rounded=1;whiteSpace=wrap;html=1;" vertex="1" parent="2Ev7zoqdlqUbOZQc-U9r-41">
          <mxGeometry width="609.88" height="167.09999999999997" as="geometry" />
        </mxCell>
        <mxCell id="2Ev7zoqdlqUbOZQc-U9r-16" value="cgs-app-seed" style="text;html=1;strokeColor=none;fillColor=none;align=center;verticalAlign=middle;whiteSpace=wrap;rounded=0;" vertex="1" parent="2Ev7zoqdlqUbOZQc-U9r-41">
          <mxGeometry y="2.9839285714285713" width="176.54421052631582" height="35.80714285714285" as="geometry" />
        </mxCell>
        <mxCell id="2Ev7zoqdlqUbOZQc-U9r-22" value="cgs-cache-client library" style="shape=document;whiteSpace=wrap;html=1;boundedLbl=1;" vertex="1" parent="2Ev7zoqdlqUbOZQc-U9r-41">
          <mxGeometry x="32.09894736842105" y="50.72678571428571" width="192.5936842105263" height="95.48571428571428" as="geometry" />
        </mxCell>
        <mxCell id="2Ev7zoqdlqUbOZQc-U9r-23" value="cgs-audit-client library" style="shape=document;whiteSpace=wrap;html=1;boundedLbl=1;" vertex="1" parent="2Ev7zoqdlqUbOZQc-U9r-41">
          <mxGeometry x="240.7421052631579" y="50.72678571428571" width="192.5936842105263" height="95.48571428571428" as="geometry" />
        </mxCell>
        <mxCell id="2Ev7zoqdlqUbOZQc-U9r-42" value="cgs apps" style="text;html=1;strokeColor=none;fillColor=none;align=center;verticalAlign=middle;whiteSpace=wrap;rounded=0;" vertex="1" parent="2Ev7zoqdlqUbOZQc-U9r-17">
          <mxGeometry y="-35.806451612903224" width="97.11111111111111" height="35.806451612903224" as="geometry" />
        </mxCell>
        <mxCell id="2Ev7zoqdlqUbOZQc-U9r-43" value="Game management (to be spliced)&amp;nbsp;" style="rounded=0;whiteSpace=wrap;html=1;" vertex="1" parent="2Ev7zoqdlqUbOZQc-U9r-17">
          <mxGeometry x="30" y="190.96774193548387" width="120" height="71.61290322580645" as="geometry" />
        </mxCell>
        <mxCell id="2Ev7zoqdlqUbOZQc-U9r-44" value="Fund management" style="rounded=0;whiteSpace=wrap;html=1;" vertex="1" parent="2Ev7zoqdlqUbOZQc-U9r-17">
          <mxGeometry x="170" y="190.96774193548387" width="120" height="71.61290322580645" as="geometry" />
        </mxCell>
        <mxCell id="2Ev7zoqdlqUbOZQc-U9r-45" value="UserInfo" style="rounded=0;whiteSpace=wrap;html=1;" vertex="1" parent="2Ev7zoqdlqUbOZQc-U9r-17">
          <mxGeometry x="310" y="190.96774193548387" width="120" height="71.61290322580645" as="geometry" />
        </mxCell>
        <mxCell id="2Ev7zoqdlqUbOZQc-U9r-24" style="edgeStyle=orthogonalEdgeStyle;rounded=0;orthogonalLoop=1;jettySize=auto;html=1;exitX=0.25;exitY=0;exitDx=0;exitDy=0;entryX=0.5;entryY=1;entryDx=0;entryDy=0;" edge="1" parent="1" source="2Ev7zoqdlqUbOZQc-U9r-22" target="2Ev7zoqdlqUbOZQc-U9r-5">
          <mxGeometry relative="1" as="geometry" />
        </mxCell>
        <mxCell id="2Ev7zoqdlqUbOZQc-U9r-25" style="edgeStyle=orthogonalEdgeStyle;rounded=0;orthogonalLoop=1;jettySize=auto;html=1;" edge="1" parent="1" source="2Ev7zoqdlqUbOZQc-U9r-23" target="2Ev7zoqdlqUbOZQc-U9r-13">
          <mxGeometry relative="1" as="geometry" />
        </mxCell>
        <mxCell id="2Ev7zoqdlqUbOZQc-U9r-33" value="" style="group" vertex="1" connectable="0" parent="1">
          <mxGeometry x="690" y="-20" width="470" height="140" as="geometry" />
        </mxCell>
        <mxCell id="2Ev7zoqdlqUbOZQc-U9r-26" value="" style="rounded=1;whiteSpace=wrap;html=1;dashed=1;" vertex="1" parent="2Ev7zoqdlqUbOZQc-U9r-33">
          <mxGeometry width="470" height="140" as="geometry" />
        </mxCell>
        <mxCell id="2Ev7zoqdlqUbOZQc-U9r-27" value="?" style="shape=cylinder3;whiteSpace=wrap;html=1;boundedLbl=1;backgroundOutline=1;size=15;" vertex="1" parent="2Ev7zoqdlqUbOZQc-U9r-33">
          <mxGeometry x="360" y="30" width="60" height="80" as="geometry" />
        </mxCell>
        <mxCell id="2Ev7zoqdlqUbOZQc-U9r-29" value="Keycloak" style="ellipse;whiteSpace=wrap;html=1;aspect=fixed;" vertex="1" parent="2Ev7zoqdlqUbOZQc-U9r-33">
          <mxGeometry x="240" y="30" width="80" height="80" as="geometry" />
        </mxCell>
        <mxCell id="2Ev7zoqdlqUbOZQc-U9r-31" value="cgs-login" style="rounded=0;whiteSpace=wrap;html=1;" vertex="1" parent="2Ev7zoqdlqUbOZQc-U9r-33">
          <mxGeometry x="70" y="40" width="120" height="60" as="geometry" />
        </mxCell>
        <mxCell id="2Ev7zoqdlqUbOZQc-U9r-30" style="edgeStyle=orthogonalEdgeStyle;rounded=0;orthogonalLoop=1;jettySize=auto;html=1;entryX=0;entryY=0.5;entryDx=0;entryDy=0;entryPerimeter=0;startArrow=blockThin;startFill=1;" edge="1" parent="2Ev7zoqdlqUbOZQc-U9r-33" source="2Ev7zoqdlqUbOZQc-U9r-29" target="2Ev7zoqdlqUbOZQc-U9r-27">
          <mxGeometry relative="1" as="geometry" />
        </mxCell>
        <mxCell id="2Ev7zoqdlqUbOZQc-U9r-32" style="edgeStyle=orthogonalEdgeStyle;rounded=0;orthogonalLoop=1;jettySize=auto;html=1;exitX=1;exitY=0.5;exitDx=0;exitDy=0;entryX=0;entryY=0.5;entryDx=0;entryDy=0;startArrow=classic;startFill=1;" edge="1" parent="2Ev7zoqdlqUbOZQc-U9r-33" source="2Ev7zoqdlqUbOZQc-U9r-31" target="2Ev7zoqdlqUbOZQc-U9r-29">
          <mxGeometry relative="1" as="geometry" />
        </mxCell>
        <mxCell id="2Ev7zoqdlqUbOZQc-U9r-36" style="edgeStyle=orthogonalEdgeStyle;rounded=0;orthogonalLoop=1;jettySize=auto;html=1;entryX=0;entryY=0.5;entryDx=0;entryDy=0;" edge="1" parent="1" source="2Ev7zoqdlqUbOZQc-U9r-35" target="2Ev7zoqdlqUbOZQc-U9r-31">
          <mxGeometry relative="1" as="geometry" />
        </mxCell>
        <mxCell id="2Ev7zoqdlqUbOZQc-U9r-37" style="edgeStyle=orthogonalEdgeStyle;rounded=0;orthogonalLoop=1;jettySize=auto;html=1;entryX=0;entryY=0.5;entryDx=0;entryDy=0;" edge="1" parent="1" source="2Ev7zoqdlqUbOZQc-U9r-35" target="2Ev7zoqdlqUbOZQc-U9r-15">
          <mxGeometry relative="1" as="geometry" />
        </mxCell>
        <mxCell id="2Ev7zoqdlqUbOZQc-U9r-35" value="css-gateway" style="rounded=0;whiteSpace=wrap;html=1;" vertex="1" parent="1">
          <mxGeometry x="70" y="240" width="220" height="110" as="geometry" />
        </mxCell>
        <mxCell id="2Ev7zoqdlqUbOZQc-U9r-39" style="edgeStyle=orthogonalEdgeStyle;rounded=0;orthogonalLoop=1;jettySize=auto;html=1;entryX=0;entryY=0.5;entryDx=0;entryDy=0;startArrow=classic;startFill=1;" edge="1" parent="1" source="2Ev7zoqdlqUbOZQc-U9r-38" target="2Ev7zoqdlqUbOZQc-U9r-35">
          <mxGeometry relative="1" as="geometry" />
        </mxCell>
        <mxCell id="2Ev7zoqdlqUbOZQc-U9r-38" value="DMZ" style="rounded=1;whiteSpace=wrap;html=1;dashed=1;" vertex="1" parent="1">
          <mxGeometry x="-90" y="265" width="120" height="60" as="geometry" />
        </mxCell>
        <mxCell id="2Ev7zoqdlqUbOZQc-U9r-47" style="edgeStyle=orthogonalEdgeStyle;rounded=0;orthogonalLoop=1;jettySize=auto;html=1;entryX=1;entryY=0.5;entryDx=0;entryDy=0;startArrow=classic;startFill=1;endArrow=none;endFill=0;" edge="1" parent="1" source="2Ev7zoqdlqUbOZQc-U9r-46" target="2Ev7zoqdlqUbOZQc-U9r-15">
          <mxGeometry relative="1" as="geometry" />
        </mxCell>
        <mxCell id="2Ev7zoqdlqUbOZQc-U9r-46" value="Maria DB" style="shape=cylinder3;whiteSpace=wrap;html=1;boundedLbl=1;backgroundOutline=1;size=15;" vertex="1" parent="1">
          <mxGeometry x="1050" y="190" width="210" height="250" as="geometry" />
        </mxCell>
        <mxCell id="2Ev7zoqdlqUbOZQc-U9r-53" style="edgeStyle=orthogonalEdgeStyle;rounded=0;orthogonalLoop=1;jettySize=auto;html=1;exitX=0.5;exitY=1;exitDx=0;exitDy=0;entryX=0;entryY=0;entryDx=0;entryDy=70;entryPerimeter=0;startArrow=classic;startFill=1;" edge="1" parent="1" source="2Ev7zoqdlqUbOZQc-U9r-31" target="2Ev7zoqdlqUbOZQc-U9r-46">
          <mxGeometry relative="1" as="geometry" />
        </mxCell>
      </root>
    </mxGraphModel>
  </diagram>
</mxfile>
